<svg width="16" xmlns="http://www.w3.org/2000/svg" height="16" fill="none"><g data-testid="Board-1"><defs><clipPath id="a" class="frame-clip frame-clip-def"><rect rx="0" ry="0" width="16" height="16"/></clipPath></defs><g clip-path="url(#a)"><g class="fills"><rect width="16" height="16" class="frame-background" style="fill: rgb(255, 255, 255); fill-opacity: 0;" ry="0" rx="0"/></g><g class="frame-children"><g data-testid="Path"><path d="M9.668 1.266 7.386.867 5.32 1.928 4.306 3.3l.311 1.811.766.479 3.704-.177 2.102-.751 1.371-1.141.445-2.532-2.781-.894-1.201.116" class="fills"/><g class="strokes"><path d="M9.668 1.266 7.386.867 5.32 1.928 4.306 3.3l.311 1.811.766.479 3.704-.177 2.102-.751 1.371-1.141.445-2.532-2.781-.894-1.201.116" style="fill: none; stroke-width: 1; stroke: rgb(81, 255, 0); stroke-opacity: 1;" class="stroke-shape"/></g></g><g data-testid="Path"><path d="m13.676 1.459.928 2.012.781 4.917-2.371 5.456-1.781 1.113-1.735.514-3.414.083L-.47 12.72l.573-3.087" class="fills"/><g class="strokes"><path d="m13.676 1.459.928 2.012.781 4.917-2.371 5.456-1.781 1.113-1.735.514-3.414.083L-.47 12.72l.573-3.087" style="fill: none; stroke-width: 1; stroke: rgb(218, 0, 255); stroke-opacity: 1;" class="stroke-shape"/></g></g></g></g></g></svg>