<svg width="250" xmlns="http://www.w3.org/2000/svg" height="64" fill="none"><g data-testid="logo"><defs><clipPath id="a" class="frame-clip frame-clip-def"><rect rx="0" ry="0" width="250" height="64"/></clipPath></defs><g clip-path="url(#a)"><g class="fills"><rect rx="0" ry="0" width="250" height="64" class="frame-background"/></g><g class="frame-children"><g data-testid="Path"><path d="m42.342 4.977-8.656-1.524-7.837 4.053L22 12.748l1.181 6.92 2.906 1.832 14.051-.678 7.973-2.867 5.204-4.361L55 3.917 44.45.5l-4.554.446" class="fills"/><g class="strokes"><path d="m42.342 4.977-8.656-1.524-7.837 4.053L22 12.748l1.181 6.92 2.906 1.832 14.051-.678 7.973-2.867 5.204-4.361L55 3.917 44.45.5l-4.554.446" style="fill: none; stroke-width: 4; stroke: rgb(81, 255, 0); stroke-opacity: 1;" class="stroke-shape"/></g></g><g data-testid="Path"><path d="m58.427 5.5 3.568 7.706L65 32.047l-9.121 20.9-6.854 4.267-6.673 1.969-13.136.317L4 48.644l2.205-11.828" class="fills"/><g class="strokes"><path d="m58.427 5.5 3.568 7.706L65 32.047l-9.121 20.9-6.854 4.267-6.673 1.969-13.136.317L4 48.644l2.205-11.828" style="fill: none; stroke-width: 4; stroke: rgb(218, 0, 255); stroke-opacity: 1;" class="stroke-shape"/></g></g><g data-testid="Path"><path d="m88.552 21.991-1.271 8.581-1.137 13.784-2.235 14.893" class="fills"/><g class="strokes"><path d="m88.552 21.991-1.271 8.581-1.137 13.784-2.235 14.893" style="fill: none; stroke-width: 4; stroke: rgb(76, 0, 255); stroke-opacity: 1;" class="stroke-shape"/></g></g><g data-testid="Path"><path d="m88.523 9.36-.552.83.552-.83Z" class="fills"/><g class="strokes"><g class="inner-stroke-shape"><defs><clipPath id="c"><use href="#b"/></clipPath><path d="m88.523 9.36-.552.83.552-.83Z" id="b" style="fill: none; stroke-width: 8; stroke: rgb(0, 0, 0); stroke-opacity: 1;"/></defs><use href="#b" clip-path="url('#c')"/></g></g></g><g data-testid="Path"><path d="m88.478 4.29-.473 1.101-.117 2.739.557.478 1.811-1.954-.557.079" class="fills"/><g class="strokes"><path d="m88.478 4.29-.473 1.101-.117 2.739.557.478 1.811-1.954-.557.079" style="fill: none; stroke-width: 4; stroke: rgb(255, 195, 0); stroke-opacity: 1;" class="stroke-shape"/></g></g><g data-testid="Path"><path d="m124.843 9.37-2.594-2.914-1.557-.471-5.82-.159-17.018 10.32-.109 2.788 3.672 3.885 5.931 1.041 5.658-.187 5.876-2.526 4.235-2.691 2.123-2.542 1.156-3.963-.326-1.521-1.632-2.478" class="fills"/><g class="strokes"><path d="m124.843 9.37-2.594-2.914-1.557-.471-5.82-.159-17.018 10.32-.109 2.788 3.672 3.885 5.931 1.041 5.658-.187 5.876-2.526 4.235-2.691 2.123-2.542 1.156-3.963-.326-1.521-1.632-2.478" style="fill: none; stroke-width: 4; stroke: rgb(0, 237, 255); stroke-opacity: 1;" class="stroke-shape"/></g></g><g data-testid="Path"><path d="m126.963 8.732 11.187 18.78 1.347 8.805v3.631l-.854 5.124-1.548 4.645-5.651 6.913-5.584 2.767-5.612-.58-4.914-2.268-4.275-7.131" class="fills"/><g class="strokes"><path d="m126.963 8.732 11.187 18.78 1.347 8.805v3.631l-.854 5.124-1.548 4.645-5.651 6.913-5.584 2.767-5.612-.58-4.914-2.268-4.275-7.131" style="fill: none; stroke-width: 4; stroke: rgb(255, 0, 25); stroke-opacity: 1;" class="stroke-shape"/></g></g><g data-testid="Path"><path d="m166.813 6.493-1.022-.594-3.211-.217-3.259.563-10.159 8.769-2.922 8.226 1.566 1.406 25.811-1.488 4.136-9.947.418-4.227-.848-2.579-6.26-1.848h-2.351l-2.091.727" class="fills"/><g class="strokes"><path d="m166.813 6.493-1.022-.594-3.211-.217-3.259.563-10.159 8.769-2.922 8.226 1.566 1.406 25.811-1.488 4.136-9.947.418-4.227-.848-2.579-6.26-1.848h-2.351l-2.091.727" style="fill: none; stroke-width: 4; stroke: rgb(255, 0, 127); stroke-opacity: 1;" class="stroke-shape"/></g></g><g data-testid="Path"><path d="m180.896 11.06 3.46 6.657 1.789 5.123.647 10.949-.507 2.027-1.897 3.737-4.585 3.084-4.166 2.083-8.866 2.533-9.83.253-3.34-1.282-.869-1.63" class="fills"/><g class="strokes"><path d="m180.896 11.06 3.46 6.657 1.789 5.123.647 10.949-.507 2.027-1.897 3.737-4.585 3.084-4.166 2.083-8.866 2.533-9.83.253-3.34-1.282-.869-1.63" style="fill: none; stroke-width: 4; stroke: rgb(84, 255, 0); stroke-opacity: 1;" class="stroke-shape"/></g></g><g data-testid="Path"><path d="m196.565 4.332.629 5.82 1.87 46.523v11.752l-1.207 5.619" class="fills"/><g class="strokes"><path d="m196.565 4.332.629 5.82 1.87 46.523v11.752l-1.207 5.619" style="fill: none; stroke-width: 4; stroke: rgb(119, 0, 255); stroke-opacity: 1;" class="stroke-shape"/></g></g><g data-testid="Path"><path d="m216.311 37.409 26.172-7.561 1.616-5.255-6.546-11.869L216.59 9.68l-8.143 12.675-2.32 15.861 4.145 13.54 5.419 4.896 15.108-1.239 8.342-5.414 5.022-5.993" class="fills"/><g class="strokes"><path d="m216.311 37.409 26.172-7.561 1.616-5.255-6.546-11.869L216.59 9.68l-8.143 12.675-2.32 15.861 4.145 13.54 5.419 4.896 15.108-1.239 8.342-5.414 5.022-5.993" style="fill: none; stroke-width: 4; stroke: rgb(0, 255, 165); stroke-opacity: 1;" class="stroke-shape"/></g></g></g></g></g></svg>